<?xml version="1.0" standalone="no"?>
<!DOCTYPE svg PUBLIC "-//W3C//DTD SVG 20010904//EN"
 "http://www.w3.org/TR/2001/REC-SVG-20010904/DTD/svg10.dtd">
<svg version="1.0" xmlns="http://www.w3.org/2000/svg"
 width="656.000000pt" height="656.000000pt" viewBox="0 0 656.000000 656.000000"
 preserveAspectRatio="xMidYMid meet">
<metadata>
Created by potrace 1.14, written by Peter Selinger 2001-2017
</metadata>
<g transform="translate(0.000000,656.000000) scale(0.100000,-0.100000)"
fill="#000000" stroke="none">
<path d="M3522 5839 c-48 -10 -99 -49 -118 -92 -14 -31 -17 -73 -18 -250 -2
-207 -2 -213 -26 -248 -48 -73 -55 -74 -404 -75 -302 -1 -369 -5 -431 -23
-179 -51 -329 -177 -407 -341 -59 -124 -62 -142 -62 -490 -1 -279 -1 -286 22
-321 29 -47 61 -68 116 -75 63 -9 124 22 156 77 22 41 23 48 24 323 2 281 2
281 28 338 35 76 103 141 175 168 55 21 76 22 403 24 l345 3 70 28 c155 63
262 185 298 340 9 42 13 127 13 280 -1 211 -2 222 -24 256 -25 42 -57 66 -93
71 -13 1 -26 6 -29 9 -3 3 -20 2 -38 -2z"/>
<path d="M4580 5703 c-54 -16 -94 -48 -112 -91 -7 -17 -12 -125 -14 -302 -3
-320 -10 -353 -90 -434 -88 -89 -120 -98 -389 -101 -241 -4 -331 -17 -438 -63
-63 -27 -139 -71 -145 -84 -2 -5 -8 -8 -13 -8 -19 0 -122 -116 -159 -180 -56
-94 -91 -208 -95 -305 -4 -102 9 -141 62 -181 36 -28 50 -32 90 -30 113 5 157
59 168 206 7 99 81 214 170 265 81 47 139 56 383 59 178 2 242 7 295 20 229
60 403 237 462 471 25 99 27 623 3 670 -35 67 -114 106 -178 88z"/>
<path d="M920 3700 c-41 -11 -104 -47 -127 -72 -62 -68 -75 -120 -73 -313 0
-55 1 -107 1 -115 -1 -8 -1 -44 0 -80 0 -36 0 -72 0 -80 -1 -8 -1 -44 0 -80 0
-36 0 -72 0 -80 -1 -8 -1 -44 0 -80 0 -36 0 -71 -1 -77 0 -16 0 -92 0 -140 0
-21 1 -83 1 -138 0 -55 0 -109 0 -120 0 -11 0 -56 0 -100 -1 -44 -1 -87 0 -95
0 -14 0 -69 -1 -200 -1 -30 -1 -66 -1 -80 0 -45 10 -164 15 -190 3 -14 9 -41
12 -60 7 -44 39 -141 65 -197 10 -24 19 -45 19 -48 0 -10 92 -160 101 -163 5
-2 9 -10 9 -17 0 -8 44 -58 98 -112 135 -137 267 -222 437 -280 50 -18 107
-34 129 -37 21 -4 42 -9 47 -11 17 -11 262 -19 344 -12 17 1 40 -1 52 -5 12
-4 25 -3 28 3 4 5 11 6 17 3 10 -6 75 -7 143 -1 17 1 40 -1 52 -5 12 -4 25 -3
28 3 4 5 11 6 17 3 10 -6 80 -7 143 -1 17 1 40 -1 52 -5 12 -4 25 -3 28 3 4 5
11 6 17 3 10 -6 75 -7 143 -1 17 1 40 -1 52 -5 12 -4 25 -3 28 3 4 5 11 6 17
3 10 -6 80 -7 143 -1 17 1 40 -1 52 -5 12 -4 25 -3 28 3 4 5 11 6 17 3 10 -7
54 -7 166 -2 28 2 52 1 52 -2 0 -6 116 -2 143 4 9 2 17 1 17 -2 0 -7 112 -5
143 2 9 2 17 1 17 -4 0 -4 15 -6 33 -4 17 3 66 6 107 8 86 5 202 28 284 56 72
24 202 88 242 117 17 13 34 23 37 23 21 0 193 166 248 240 27 36 53 70 58 76
25 30 112 228 130 294 37 137 44 196 44 378 1 136 2 142 21 143 12 0 91 2 176
4 85 2 166 6 180 9 14 3 48 11 75 17 54 12 230 92 253 115 7 8 17 14 21 14 12
0 147 133 172 170 12 19 26 37 30 40 14 10 79 146 98 205 10 33 24 92 30 130
9 62 11 86 12 138 0 31 -12 144 -17 157 -3 8 -12 38 -20 67 -16 61 -46 128
-88 198 -113 186 -334 341 -529 370 -16 3 -34 8 -40 12 -15 10 -4192 12 -4227
3z m3533 -1110 c0 -437 -3 -819 -7 -849 -9 -71 -26 -139 -43 -173 -7 -15 -14
-31 -14 -35 0 -5 -8 -24 -17 -43 -47 -102 -138 -213 -236 -287 -68 -51 -198
-116 -266 -133 -25 -6 -54 -13 -65 -16 -11 -3 -73 -7 -139 -9 -65 -2 -121 -6
-123 -9 -3 -3 -15 -1 -28 4 -13 5 -25 6 -28 4 -9 -9 -71 -10 -94 -2 -13 4 -25
3 -28 -3 -4 -5 -11 -6 -17 -3 -10 6 -75 7 -143 1 -16 -1 -40 1 -52 5 -12 4
-25 3 -28 -2 -3 -5 -16 -6 -28 -1 -12 4 -35 4 -52 1 -16 -3 -40 -3 -52 1 -12
5 -25 4 -28 -1 -3 -5 -15 -6 -26 -2 -11 5 -45 5 -75 2 -30 -3 -54 -4 -54 -1 0
5 -106 4 -170 -2 -14 -1 -35 1 -47 5 -12 4 -25 3 -28 -3 -4 -5 -11 -6 -17 -3
-10 7 -54 7 -166 2 -28 -2 -52 -1 -52 2 0 6 -101 2 -107 -4 -3 -3 -16 -1 -29
4 -14 6 -26 6 -29 0 -3 -5 -16 -6 -28 -1 -12 4 -35 4 -52 1 -16 -3 -40 -3 -52
1 -12 5 -25 4 -28 -1 -3 -5 -12 -7 -20 -4 -23 9 -125 10 -125 1 0 -5 -3 -6 -8
-3 -4 2 -39 7 -77 10 -89 7 -94 9 -190 41 -160 53 -297 153 -385 280 -19 28
-38 52 -41 55 -8 7 -65 130 -77 165 -23 69 -34 135 -38 223 -2 51 -6 97 -9
102 -3 5 -1 11 4 15 6 3 7 16 3 28 -4 12 -6 36 -5 52 2 27 3 42 2 88 0 6 1 37
2 68 1 31 -1 61 -5 67 -3 6 -2 13 3 17 6 3 7 16 3 28 -4 12 -6 36 -5 52 2 27
3 42 2 88 0 6 1 37 2 68 1 31 -1 61 -5 67 -3 6 -2 13 3 17 6 3 7 16 3 28 -4
12 -6 36 -5 52 6 63 5 133 -1 143 -3 6 -2 13 3 17 6 3 7 16 3 28 -4 12 -6 36
-5 52 6 68 5 133 -1 143 -3 6 -2 13 3 17 6 3 7 16 3 28 -4 12 -6 36 -5 52 6
63 5 133 -1 143 -3 6 -2 13 3 17 6 3 7 15 1 29 -4 12 -5 29 0 36 4 7 6 18 4
25 -4 8 418 11 1702 11 l1708 -1 -1 -795z m717 771 c170 -58 303 -206 339
-378 13 -65 7 -193 -13 -259 -25 -82 -90 -174 -170 -242 -30 -25 -136 -85
-136 -77 0 3 -9 1 -20 -5 -32 -17 -74 -21 -241 -25 l-155 -3 1 507 c1 278 3
507 4 508 0 1 74 0 164 -2 135 -2 173 -6 227 -24z"/>
</g>
</svg>
