<svg width="20" height="20" viewBox="0 0 20 20" fill="none" xmlns="http://www.w3.org/2000/svg">
<path d="M14.167 9.76667V11.6667C14.167 14.8883 11.5553 17.5 8.33366 17.5C5.112 17.5 2.50033 14.8883 2.50033 11.6667V9.76667C2.50033 9.4353 2.76896 9.16667 3.10033 9.16667H13.567C13.8984 9.16667 14.167 9.4353 14.167 9.76667Z" stroke="#403F3D" stroke-width="1.5" stroke-linecap="round" stroke-linejoin="round"/>
<path d="M10.0003 7.49996C10.0003 6.66663 10.5956 5.83329 11.786 5.83329V5.83329C13.101 5.83329 14.167 4.7673 14.167 3.45234V2.91663" stroke="#403F3D" stroke-width="1.5" stroke-linecap="round" stroke-linejoin="round"/>
<path d="M6.66634 7.5V7.08333C6.66634 5.70262 7.78563 4.58333 9.16634 4.58333V4.58333C10.0868 4.58333 10.833 3.83714 10.833 2.91667V2.5" stroke="#403F3D" stroke-width="1.5" stroke-linecap="round" stroke-linejoin="round"/>
<path d="M13.333 9.16663H15.4163C16.5669 9.16663 17.4997 10.0994 17.4997 11.25C17.4997 12.4006 16.5669 13.3333 15.4163 13.3333H14.1663" stroke="#403F3D" stroke-width="1.5" stroke-linecap="round" stroke-linejoin="round"/>
</svg>
